<svg viewBox="0 0 20 21" xmlns="http://www.w3.org/2000/svg">
<path d="M11.6667 10.5C10.7542 10.5 10 9.74583 10 8.83333C10 8.53833 10.0858 8.26417 10.2233 8.0225C10.1483 8.01667 10.0767 8 10 8C8.63167 8 7.5 9.1325 7.5 10.5C7.5 11.8683 8.63167 13 10 13C11.3675 13 12.5 11.8683 12.5 10.5C12.5 10.4233 12.4833 10.3517 12.4775 10.2767C12.2358 10.4142 11.9617 10.5 11.6667 10.5Z"/>
<path d="M9.99943 4.66667C3.63859 4.66667 1.72693 10.1808 1.70943 10.2367L1.62109 10.5L1.70859 10.7633C1.72693 10.8192 3.63859 16.3333 9.99943 16.3333C16.3603 16.3333 18.2719 10.8192 18.2894 10.7633L18.3778 10.5L18.2903 10.2367C18.2719 10.1808 16.3603 4.66667 9.99943 4.66667ZM9.99943 14.6667C5.54026 14.6667 3.81276 11.4617 3.39443 10.5C3.81443 9.53501 5.54276 6.33334 9.99943 6.33334C14.4586 6.33334 16.1861 9.53834 16.6044 10.5C16.1844 11.465 14.4561 14.6667 9.99943 14.6667Z"/>
</svg>