<svg viewBox="0 0 20 21" xmlns="http://www.w3.org/2000/svg">
<path d="M9.99943 4.66497C8.46943 4.66497 7.20276 4.98914 6.15193 5.47414L3.08859 2.4108L1.91026 3.58914L4.67276 6.35247C2.49526 7.97914 1.72026 10.2008 1.70859 10.2358L1.62109 10.4991L1.70859 10.7625C1.72693 10.8183 3.63859 16.3333 9.99943 16.3333C11.5286 16.3333 12.7944 16.0091 13.8453 15.5241L16.9103 18.5891L18.0886 17.4108L15.3244 14.6466C17.5028 13.02 18.2786 10.7983 18.2903 10.7633L18.3778 10.5L18.2903 10.2366C18.2719 10.18 16.3603 4.66497 9.99943 4.66497ZM3.39443 10.5C3.48026 10.3033 3.62276 10.0116 3.82859 9.6758L8.71776 14.565C5.20693 14.025 3.76859 11.3625 3.39443 10.5ZM11.1003 14.5891L4.86693 8.35497C5.14943 8.0708 5.48026 7.7933 5.85693 7.53664L12.5694 14.2483C12.1244 14.4033 11.6353 14.5191 11.1003 14.5891ZM14.1403 13.4625L12.8561 12.1783C13.1511 11.6816 13.3328 11.1116 13.3328 10.4991C13.3328 10.1041 13.2503 9.72914 13.1203 9.37497C12.9686 9.54997 12.7503 9.66664 12.4994 9.66664C12.0386 9.66664 11.6661 9.2933 11.6661 8.8333C11.6661 8.46747 11.9061 8.16497 12.2344 8.05331C11.6403 7.50914 10.8578 7.16581 9.99943 7.16581C9.38693 7.16581 8.81693 7.34747 8.32026 7.64247L7.42859 6.7508C8.16443 6.49497 9.01109 6.33164 9.99943 6.33164C14.4586 6.33164 16.1869 9.53747 16.6044 10.4983C16.3536 11.0758 15.6286 12.4491 14.1403 13.4625Z"/>
</svg>